<svg xmlns="http://www.w3.org/2000/svg" viewBox="0 0 64 64" role="img" aria-labelledby="title">
  <title id="title">The Hedera Court favicon</title>
  <rect width="64" height="64" rx="12" fill="#f4ecd8"/>
  <circle cx="32" cy="32" r="28" fill="#6b1c1c"/>
  <circle cx="32" cy="32" r="22" fill="none" stroke="#8a6d3b" stroke-width="3"/>
  <path d="M18 26h28L32 16 18 26Z" fill="#f4ecd8"/>
  <path d="M19 29h26v4H19v-4Zm2 19h22v4H21v-4Z" fill="#8a6d3b"/>
  <path d="M22 34h5v13h-5V34Zm15 0h5v13h-5V34Z" fill="#f4ecd8"/>
  <path d="M28.5 34h7v5h-7v-5Zm0 8h7v5h-7v-5Z" fill="#f4ecd8"/>
  <path d="M42 15c4 1 6 4 6 8-5 .5-8-2-9-6 1.2-1.2 2.1-1.8 3-2Z" fill="#4a5a3a"/>
  <path d="M40 18c2 1 4 2.5 6 4" fill="none" stroke="#f4ecd8" stroke-width="1.5" stroke-linecap="round"/>
</svg>
